<?xml version="1.0" encoding="UTF-8" standalone="no"?>
<svg
   width="48"
   height="46"
   fill="none"
   viewBox="0 0 48 46"
   version="1.1"
   id="svg31"
   sodipodi:docname="favicon.svg"
   inkscape:version="1.4.2 (f4327f4, 2025-05-13)"
   xmlns:inkscape="http://www.inkscape.org/namespaces/inkscape"
   xmlns:sodipodi="http://sodipodi.sourceforge.net/DTD/sodipodi-0.dtd"
   xmlns:xlink="http://www.w3.org/1999/xlink"
   xmlns="http://www.w3.org/2000/svg"
   xmlns:svg="http://www.w3.org/2000/svg">
  <sodipodi:namedview
     id="namedview31"
     pagecolor="#ffffff"
     bordercolor="#000000"
     borderopacity="0.25"
     inkscape:showpageshadow="2"
     inkscape:pageopacity="0.0"
     inkscape:pagecheckerboard="0"
     inkscape:deskcolor="#d1d1d1"
     showgrid="false"
     inkscape:zoom="1.47"
     inkscape:cx="23.809524"
     inkscape:cy="92.857143"
     inkscape:window-width="1366"
     inkscape:window-height="705"
     inkscape:window-x="-8"
     inkscape:window-y="-8"
     inkscape:window-maximized="1"
     inkscape:current-layer="svg31" />
  <image
     width="40.025547"
     height="38.774837"
     preserveAspectRatio="none"
     xlink:href="images/image1.png"
     id="image1"
     x="-45.194298"
     y="3.4121451"
     transform="scale(-1,1)"
     style="opacity:1;mix-blend-mode:color;fill:#a05a2c;fill-opacity:1;fill-rule:nonzero;stroke:url(#linearGradient44);stroke-width:1.00157;stroke-dasharray:none;paint-order:stroke fill markers" />
  <mask
     id="a"
     width="48"
     height="46"
     x="0"
     y="0"
     maskUnits="userSpaceOnUse"
     style="mask-type:alpha">
    <path
       fill="#000"
       d="M25.842 44.938c-.664.844-2.021.375-2.021-.698V33.937a2.26 2.26 0 0 0-2.262-2.262H10.183c-.92 0-1.456-1.04-.92-1.788l7.48-10.471c1.07-1.498 0-3.579-1.842-3.579H1.133c-.92 0-1.456-1.04-.92-1.787L9.91.473c.214-.297.556-.474.92-.474h28.894c.92 0 1.456 1.04.92 1.788l-7.48 10.471c-1.07 1.498 0 3.578 1.842 3.578h11.377c.943 0 1.473 1.088.89 1.832L25.843 44.94z"
       style="fill:#000;fill-opacity:1"
       id="path2" />
  </mask>
  <defs
     id="defs31">
    <linearGradient
       id="linearGradient43"
       inkscape:collect="always">
      <stop
         style="stop-color:#000000;stop-opacity:1;"
         offset="0"
         id="stop43" />
      <stop
         style="stop-color:#000000;stop-opacity:0;"
         offset="1"
         id="stop44" />
    </linearGradient>
    <linearGradient
       id="swatch37"
       inkscape:swatch="solid">
      <stop
         style="stop-color:#a05a2c;stop-opacity:1;"
         offset="0"
         id="stop37" />
    </linearGradient>
    <linearGradient
       id="swatch36"
       inkscape:swatch="solid">
      <stop
         style="stop-color:#a05a2c;stop-opacity:1;"
         offset="0"
         id="stop36" />
    </linearGradient>
    <filter
       id="b"
       width="60.045"
       height="41.654"
       x="-19.77"
       y="16.149"
       color-interpolation-filters="sRGB"
       filterUnits="userSpaceOnUse">
      <feFlood
         flood-opacity="0"
         result="BackgroundImageFix"
         id="feFlood17" />
      <feBlend
         in="SourceGraphic"
         in2="BackgroundImageFix"
         result="shape"
         id="feBlend17" />
      <feGaussianBlur
         result="effect1_foregroundBlur_2002_17158"
         stdDeviation="7.659"
         id="feGaussianBlur17" />
    </filter>
    <filter
       id="c"
       width="90.34"
       height="51.437"
       x="-54.613"
       y="-7.533"
       color-interpolation-filters="sRGB"
       filterUnits="userSpaceOnUse">
      <feFlood
         flood-opacity="0"
         result="BackgroundImageFix"
         id="feFlood18" />
      <feBlend
         in="SourceGraphic"
         in2="BackgroundImageFix"
         result="shape"
         id="feBlend18" />
      <feGaussianBlur
         result="effect1_foregroundBlur_2002_17158"
         stdDeviation="7.659"
         id="feGaussianBlur18" />
    </filter>
    <filter
       id="d"
       width="79.355"
       height="29.4"
       x="-49.64"
       y="2.03"
       color-interpolation-filters="sRGB"
       filterUnits="userSpaceOnUse">
      <feFlood
         flood-opacity="0"
         result="BackgroundImageFix"
         id="feFlood19" />
      <feBlend
         in="SourceGraphic"
         in2="BackgroundImageFix"
         result="shape"
         id="feBlend19" />
      <feGaussianBlur
         result="effect1_foregroundBlur_2002_17158"
         stdDeviation="4.596"
         id="feGaussianBlur19" />
    </filter>
    <filter
       id="e"
       width="79.579"
       height="29.4"
       x="-45.045"
       y="20.029"
       color-interpolation-filters="sRGB"
       filterUnits="userSpaceOnUse">
      <feFlood
         flood-opacity="0"
         result="BackgroundImageFix"
         id="feFlood20" />
      <feBlend
         in="SourceGraphic"
         in2="BackgroundImageFix"
         result="shape"
         id="feBlend20" />
      <feGaussianBlur
         result="effect1_foregroundBlur_2002_17158"
         stdDeviation="4.596"
         id="feGaussianBlur20" />
    </filter>
    <filter
       id="f"
       width="79.579"
       height="29.4"
       x="-43.513"
       y="21.178"
       color-interpolation-filters="sRGB"
       filterUnits="userSpaceOnUse">
      <feFlood
         flood-opacity="0"
         result="BackgroundImageFix"
         id="feFlood21" />
      <feBlend
         in="SourceGraphic"
         in2="BackgroundImageFix"
         result="shape"
         id="feBlend21" />
      <feGaussianBlur
         result="effect1_foregroundBlur_2002_17158"
         stdDeviation="4.596"
         id="feGaussianBlur21" />
    </filter>
    <filter
       id="g"
       width="74.749"
       height="58.852"
       x="15.756"
       y="-17.901"
       color-interpolation-filters="sRGB"
       filterUnits="userSpaceOnUse">
      <feFlood
         flood-opacity="0"
         result="BackgroundImageFix"
         id="feFlood22" />
      <feBlend
         in="SourceGraphic"
         in2="BackgroundImageFix"
         result="shape"
         id="feBlend22" />
      <feGaussianBlur
         result="effect1_foregroundBlur_2002_17158"
         stdDeviation="7.659"
         id="feGaussianBlur22" />
    </filter>
    <filter
       id="h"
       width="61.377"
       height="25.362"
       x="23.548"
       y="2.284"
       color-interpolation-filters="sRGB"
       filterUnits="userSpaceOnUse">
      <feFlood
         flood-opacity="0"
         result="BackgroundImageFix"
         id="feFlood23" />
      <feBlend
         in="SourceGraphic"
         in2="BackgroundImageFix"
         result="shape"
         id="feBlend23" />
      <feGaussianBlur
         result="effect1_foregroundBlur_2002_17158"
         stdDeviation="4.596"
         id="feGaussianBlur23" />
    </filter>
    <filter
       id="i"
       width="61.377"
       height="25.362"
       x="23.548"
       y="2.284"
       color-interpolation-filters="sRGB"
       filterUnits="userSpaceOnUse">
      <feFlood
         flood-opacity="0"
         result="BackgroundImageFix"
         id="feFlood24" />
      <feBlend
         in="SourceGraphic"
         in2="BackgroundImageFix"
         result="shape"
         id="feBlend24" />
      <feGaussianBlur
         result="effect1_foregroundBlur_2002_17158"
         stdDeviation="4.596"
         id="feGaussianBlur24" />
    </filter>
    <filter
       id="j"
       width="56.045"
       height="63.649"
       x="-27.636"
       y="-22.853"
       color-interpolation-filters="sRGB"
       filterUnits="userSpaceOnUse">
      <feFlood
         flood-opacity="0"
         result="BackgroundImageFix"
         id="feFlood25" />
      <feBlend
         in="SourceGraphic"
         in2="BackgroundImageFix"
         result="shape"
         id="feBlend25" />
      <feGaussianBlur
         result="effect1_foregroundBlur_2002_17158"
         stdDeviation="4.596"
         id="feGaussianBlur25" />
    </filter>
    <filter
       id="k"
       width="54.814"
       height="64.646"
       x="20.116"
       y="-38.415"
       color-interpolation-filters="sRGB"
       filterUnits="userSpaceOnUse">
      <feFlood
         flood-opacity="0"
         result="BackgroundImageFix"
         id="feFlood26" />
      <feBlend
         in="SourceGraphic"
         in2="BackgroundImageFix"
         result="shape"
         id="feBlend26" />
      <feGaussianBlur
         result="effect1_foregroundBlur_2002_17158"
         stdDeviation="4.596"
         id="feGaussianBlur26" />
    </filter>
    <filter
       id="l"
       width="33.541"
       height="35.313"
       x="24.641"
       y="-11.323"
       color-interpolation-filters="sRGB"
       filterUnits="userSpaceOnUse">
      <feFlood
         flood-opacity="0"
         result="BackgroundImageFix"
         id="feFlood27" />
      <feBlend
         in="SourceGraphic"
         in2="BackgroundImageFix"
         result="shape"
         id="feBlend27" />
      <feGaussianBlur
         result="effect1_foregroundBlur_2002_17158"
         stdDeviation="4.596"
         id="feGaussianBlur27" />
    </filter>
    <filter
       id="m"
       width="54.814"
       height="64.646"
       x="-29.286"
       y="6.009"
       color-interpolation-filters="sRGB"
       filterUnits="userSpaceOnUse">
      <feFlood
         flood-opacity="0"
         result="BackgroundImageFix"
         id="feFlood28" />
      <feBlend
         in="SourceGraphic"
         in2="BackgroundImageFix"
         result="shape"
         id="feBlend28" />
      <feGaussianBlur
         result="effect1_foregroundBlur_2002_17158"
         stdDeviation="4.596"
         id="feGaussianBlur28" />
    </filter>
    <filter
       id="n"
       width="54.814"
       height="64.646"
       x="-29.286"
       y="6.009"
       color-interpolation-filters="sRGB"
       filterUnits="userSpaceOnUse">
      <feFlood
         flood-opacity="0"
         result="BackgroundImageFix"
         id="feFlood29" />
      <feBlend
         in="SourceGraphic"
         in2="BackgroundImageFix"
         result="shape"
         id="feBlend29" />
      <feGaussianBlur
         result="effect1_foregroundBlur_2002_17158"
         stdDeviation="4.596"
         id="feGaussianBlur29" />
    </filter>
    <filter
       id="o"
       width="54.814"
       height="64.646"
       x="8.244"
       y="-2.416"
       color-interpolation-filters="sRGB"
       filterUnits="userSpaceOnUse">
      <feFlood
         flood-opacity="0"
         result="BackgroundImageFix"
         id="feFlood30" />
      <feBlend
         in="SourceGraphic"
         in2="BackgroundImageFix"
         result="shape"
         id="feBlend30" />
      <feGaussianBlur
         result="effect1_foregroundBlur_2002_17158"
         stdDeviation="4.596"
         id="feGaussianBlur30" />
    </filter>
    <filter
       id="p"
       width="39.409"
       height="43.623"
       x="18.713"
       y="10.588"
       color-interpolation-filters="sRGB"
       filterUnits="userSpaceOnUse">
      <feFlood
         flood-opacity="0"
         result="BackgroundImageFix"
         id="feFlood31" />
      <feBlend
         in="SourceGraphic"
         in2="BackgroundImageFix"
         result="shape"
         id="feBlend31" />
      <feGaussianBlur
         result="effect1_foregroundBlur_2002_17158"
         stdDeviation="4.596"
         id="feGaussianBlur31" />
    </filter>
    <linearGradient
       inkscape:collect="always"
       xlink:href="#linearGradient43"
       id="linearGradient44"
       x1="-123.31115"
       y1="51.813852"
       x2="-67.210396"
       y2="51.813852"
       gradientUnits="userSpaceOnUse" />
  </defs>
  <path
     style="opacity:1;fill:#a05a2c;fill-opacity:1;fill-rule:nonzero;stroke:#000000;stroke-width:0.681343;stroke-dasharray:none;stroke-opacity:1;paint-order:stroke fill markers"
     d=""
     id="path44" />
  <path
     style="opacity:1;fill:#a05a2c;fill-opacity:1;fill-rule:nonzero;stroke:#000000;stroke-width:0.473185;stroke-dasharray:none;stroke-opacity:1;paint-order:stroke fill markers"
     d="m 12.219427,39.716646 c -0.06272,-0.0755 -1.140861,-0.36172 -2.3958747,-0.636037 C 8.5685381,38.806292 7.2753093,38.312087 6.9497097,37.982377 6.6241075,37.652664 6.2106114,37.490967 6.0308259,37.623048 5.6675377,37.889946 3.294468,36.460973 2.9655365,35.777247 2.7237312,35.274622 4.4870292,32.589004 5.3251522,32.1834 c 0.310195,-0.150117 1.7709788,-0.131416 3.2461882,0.04156 3.6499956,0.427974 7.2330126,-0.206508 10.1106876,-1.790415 3.083676,-1.697292 4.734573,-3.658612 5.484502,-6.51578 0.487184,-1.856108 0.707778,-2.170299 1.184721,-1.687341 0.41644,0.421698 0.423766,1.808753 0.02526,4.792367 -0.503721,3.771864 -0.463328,4.307671 0.39716,5.268377 1.060737,1.184269 3.012349,2.170511 3.093441,1.563261 0.02851,-0.213739 -0.537347,-0.821433 -1.25753,-1.350429 -1.629446,-1.196869 -1.859513,-2.311276 -1.08461,-5.253709 0.769733,-2.922803 0.472477,-4.978045 -0.828405,-5.727649 C 24.48495,20.825476 24.473249,20.713031 24.816942,13.074323 24.965268,9.7777437 25.057873,6.3257699 25.02274,5.4032667 24.95994,3.755315 24.99197,3.7248016 26.854753,3.6579526 31.112967,3.5051375 45.753998,5.8012163 46.446492,6.7304254 46.752725,7.1413418 44.141568,16.938934 42.701788,20.781293 c -1.703554,4.546286 -2.733715,10.269002 -2.425605,13.474537 0.09163,0.953212 -0.03004,2.210943 -0.270352,2.79496 -0.426364,1.036105 -0.592771,1.050223 -6.864192,0.582345 -3.6294,-0.27077 -8.261848,-0.296535 -10.641716,-0.05918 -5.014954,0.500151 -10.220425,-0.03695 -14.7180975,-1.518641 -3.8623205,-1.272377 -4.5461909,-1.384662 -3.4048327,-0.55904 1.3145556,0.950906 5.2326345,2.340647 8.6613992,3.072192 2.318198,0.494598 4.400762,0.563141 8.070207,0.265603 2.720145,-0.220562 7.650932,-0.267191 10.957308,-0.103619 3.306366,0.163572 6.435428,0.223715 6.953467,0.133653 0.793625,-0.137972 0.90892,0.07437 0.7324,1.348896 -0.115422,0.831934 -0.399921,1.727391 -0.63265,1.989856 -0.273518,0.308457 -2.253479,0.257047 -5.599074,-0.145385 -4.57088,-0.549822 -5.163696,-0.714217 -5.071263,-1.406393 0.05756,-0.43109 0.0027,-0.908181 -0.121494,-1.060204 -0.328365,-0.401271 -6.140684,0.0073 -7.558587,0.531299 -0.663198,0.2451 -1.679619,0.270588 -2.258713,0.05664 -0.579094,-0.213946 -1.232789,-0.257912 -1.452657,-0.0977 -0.367231,0.267586 -4.576323,-0.0495 -4.837955,-0.364459 z m 0.621026,-3.077239 C 13.07127,34.911053 10.341222,32.874201 7.4126631,32.589805 l -2.0765326,-0.201654 1.6259722,0.6461 c 2.3268433,0.924599 4.6405763,2.433912 4.8253563,3.147715 0.155857,0.602069 0.985544,0.962502 1.052994,0.457444 z m 22.930849,-4.659669 c 3.736665,-1.244192 3.493308,-1.135328 3.237311,-1.448173 -0.340211,-0.415772 -4.456172,0.553879 -6.603089,1.555575 -1.363406,0.636126 -1.931366,0.724856 -1.87366,0.292711 0.12863,-0.963114 1.777555,-1.804068 3.722085,-1.89826 2.018864,-0.09779 3.663242,-1.254398 4.707901,-3.311403 l 0.721176,-1.420059 -2.261175,-0.278216 c -1.394226,-0.17153 -1.998997,-0.394943 -1.577369,-0.582666 0.376092,-0.167448 1.146151,-0.164036 1.71125,0.0076 0.565091,0.171617 1.503541,0.04388 2.085449,-0.283851 0.974295,-0.548731 0.998547,-0.640233 0.306576,-1.156394 -0.681559,-0.508387 -0.62591,-0.652721 0.598293,-1.552103 1.086432,-0.79817 1.394668,-1.415357 1.580202,-3.164043 0.126772,-1.194846 0.430064,-2.589432 0.673998,-3.099077 0.329854,-0.689135 0.141686,-1.216618 -0.734005,-2.058083 -0.7586,-0.728912 -0.918447,-1.100393 -0.449308,-1.044143 0.945802,0.113402 1.757787,-0.629513 2.403744,-2.199279 0.483187,-1.1742403 0.436695,-1.2477733 -0.674386,-1.0664173 -0.656351,0.107134 -1.592978,0.45046 -2.081407,0.7629483 -0.794301,0.50819 -0.93844,0.42456 -1.365553,-0.7923263 -0.262638,-0.748267 -0.845864,-1.4746444 -1.296047,-1.6141711 -0.636276,-0.1972015 -0.860651,0.06171 -1.007695,1.1628121 -0.111948,0.838229 0.09136,1.5590603 0.498019,1.7657113 0.76367,0.388083 0.789537,1.452038 0.04313,1.774429 -0.264821,0.114382 -0.853721,-0.931782 -1.308677,-2.324808 l -0.827196,-2.5327739 -1.520782,1.1172706 -1.5208,1.117272 -0.90689,-1.036409 C 31.553607,8.1033607 30.578202,7.351628 29.884842,7.0028693 l -1.260661,-0.6341026 -0.290958,2.178668 c -0.160019,1.198267 -0.06388,2.4562143 0.213737,2.7954373 0.39254,0.479709 0.332813,0.596161 -0.268782,0.524029 -0.987522,-0.118404 -0.831446,1.389944 0.269567,2.605252 0.692981,0.764918 0.693179,0.945935 0.0018,1.453973 -1.224707,0.899758 -1.547912,4.679993 -0.536598,6.276256 0.489673,0.772911 0.599655,1.29328 0.26483,1.253136 -0.58023,-0.06957 -0.626388,1.184311 -0.108962,2.960148 0.177495,0.609152 0.108357,0.797275 -0.204886,0.55753 -1.078096,-0.825134 -1.800517,2.290482 -0.81138,3.499278 0.879561,1.074885 1.575754,1.114559 1.315733,0.07498 -0.178776,-0.714788 -0.109097,-0.737054 0.479587,-0.153264 0.410016,0.406609 0.676515,1.805117 0.658516,3.455725 l -0.03023,2.772699 1.587447,-1.818597 c 1.150707,-1.318266 2.418406,-2.095281 4.607818,-2.824287 z M 44.312479,7.1073876 C 43.356878,6.4229024 31.213568,4.571554 28.121218,4.6388968 c -4.462099,0.097172 -2.052662,0.7057581 7.347334,1.8558191 6.755122,0.8264679 9.398001,1.0095589 8.843927,0.6126717 z"
     id="path45" />
  <path
     style="opacity:1;fill:#a05a2c;fill-opacity:1;fill-rule:nonzero;stroke:#000000;stroke-width:0.681343;stroke-dasharray:none;stroke-opacity:1;paint-order:stroke fill markers"
     d=""
     id="path46" />
</svg>
